<?xml version="1.0" encoding="utf-8"?>
<!-- Generated by IcoMoon.io -->
<!DOCTYPE svg PUBLIC "-//W3C//DTD SVG 1.1//EN" "http://www.w3.org/Graphics/SVG/1.1/DTD/svg11.dtd">
<svg version="1.1" xmlns="http://www.w3.org/2000/svg" xmlns:xlink="http://www.w3.org/1999/xlink" width="1024" height="1024" viewBox="0 0 1024 1024">
<g id="icomoon-ignore">
</g>
<path fill="#000" d="M376.355 198.327c0 25.805 0 140.983 0 140.983h-103.288v172.395h103.288v512.296h212.176v-512.282h142.381c0 0 13.335-82.662 19.798-173.045-18.532 0-161.377 0-161.377 0s0-100.293 0-117.873c0-17.618 23.134-41.316 45.999-41.316 22.822 0 70.989 0 115.602 0 0-23.472 0-104.572 0-179.473-59.557 0-127.313 0-157.179 0-222.645-0.012-217.4 172.554-217.4 198.313z"></path>
</svg>
