<?xml version="1.0" encoding="utf-8"?>
<!-- Generated by IcoMoon.io -->
<!DOCTYPE svg PUBLIC "-//W3C//DTD SVG 1.1//EN" "http://www.w3.org/Graphics/SVG/1.1/DTD/svg11.dtd">
<svg version="1.1" xmlns="http://www.w3.org/2000/svg" xmlns:xlink="http://www.w3.org/1999/xlink" width="1205" height="1024" viewBox="0 0 1205 1024">
<g id="icomoon-ignore">
</g>
<path fill="#000" d="M1205.005 138.146c-44.585 19.883-92.183 33.137-142.191 39.163 51.213-30.728 90.376-78.928 109.054-136.769-48.2 28.318-100.618 48.803-157.254 60.25-45.187-48.2-109.054-78.326-180.149-78.326-136.769 0-247.63 110.861-247.63 247.027 0 19.28 2.41 38.561 6.628 56.635-205.454-10.243-387.411-109.054-509.72-258.474-21.087 36.753-33.137 78.928-33.137 124.116 0 86.158 43.38 161.472 109.656 206.057-40.368-1.205-78.326-12.652-112.066-30.728 0 0.602 0 1.807 0 3.013 0 119.898 85.556 219.311 198.224 242.207-20.485 5.422-42.176 8.435-65.070 8.435-15.665 0-31.33-1.205-46.393-4.217 31.33 98.209 122.911 169.907 230.759 171.714-84.35 66.276-190.994 106.041-306.675 106.041-19.883 0-39.765-1.205-59.046-3.615 109.656 69.891 239.194 110.861 378.976 110.861 454.891 0 703.124-376.566 703.124-703.124 0-10.845 0-21.69-0.602-31.933 48.2-34.945 90.376-78.326 123.513-128.333z"></path>
</svg>
